<svg width="20" height="20" viewBox="0 0 20 20" fill="none" xmlns="http://www.w3.org/2000/svg">
<mask id="mask0_307_3867" style="mask-type:alpha" maskUnits="userSpaceOnUse" x="0" y="0" width="20" height="20">
<rect width="20" height="20" fill="#D9D9D9"/>
</mask>
<g mask="url(#mask0_307_3867)">
<path d="M4.87496 14.2493C5.58329 13.7077 6.37496 13.2806 7.24996 12.9681C8.12496 12.6556 9.04163 12.4993 9.99996 12.4993C10.9583 12.4993 11.875 12.6556 12.75 12.9681C13.625 13.2806 14.4166 13.7077 15.125 14.2493C15.6111 13.6799 15.9895 13.0341 16.2604 12.3118C16.5312 11.5896 16.6666 10.8188 16.6666 9.99935C16.6666 8.15213 16.0173 6.57921 14.7187 5.2806C13.4201 3.98199 11.8472 3.33268 9.99996 3.33268C8.15274 3.33268 6.57982 3.98199 5.28121 5.2806C3.9826 6.57921 3.33329 8.15213 3.33329 9.99935C3.33329 10.8188 3.46871 11.5896 3.73954 12.3118C4.01038 13.0341 4.38885 13.6799 4.87496 14.2493ZM9.99996 10.8327C9.18051 10.8327 8.48954 10.5514 7.92704 9.98893C7.36454 9.42643 7.08329 8.73546 7.08329 7.91602C7.08329 7.09657 7.36454 6.4056 7.92704 5.8431C8.48954 5.2806 9.18051 4.99935 9.99996 4.99935C10.8194 4.99935 11.5104 5.2806 12.0729 5.8431C12.6354 6.4056 12.9166 7.09657 12.9166 7.91602C12.9166 8.73546 12.6354 9.42643 12.0729 9.98893C11.5104 10.5514 10.8194 10.8327 9.99996 10.8327ZM9.99996 18.3327C8.84718 18.3327 7.76385 18.1139 6.74996 17.6764C5.73607 17.2389 4.85413 16.6452 4.10413 15.8952C3.35413 15.1452 2.76038 14.2632 2.32288 13.2493C1.88538 12.2355 1.66663 11.1521 1.66663 9.99935C1.66663 8.84657 1.88538 7.76324 2.32288 6.74935C2.76038 5.73546 3.35413 4.85352 4.10413 4.10352C4.85413 3.35352 5.73607 2.75977 6.74996 2.32227C7.76385 1.88477 8.84718 1.66602 9.99996 1.66602C11.1527 1.66602 12.2361 1.88477 13.25 2.32227C14.2638 2.75977 15.1458 3.35352 15.8958 4.10352C16.6458 4.85352 17.2395 5.73546 17.677 6.74935C18.1145 7.76324 18.3333 8.84657 18.3333 9.99935C18.3333 11.1521 18.1145 12.2355 17.677 13.2493C17.2395 14.2632 16.6458 15.1452 15.8958 15.8952C15.1458 16.6452 14.2638 17.2389 13.25 17.6764C12.2361 18.1139 11.1527 18.3327 9.99996 18.3327ZM9.99996 16.666C10.7361 16.666 11.4305 16.5584 12.0833 16.3431C12.7361 16.1278 13.3333 15.8188 13.875 15.416C13.3333 15.0132 12.7361 14.7042 12.0833 14.4889C11.4305 14.2737 10.7361 14.166 9.99996 14.166C9.26385 14.166 8.5694 14.2737 7.91663 14.4889C7.26385 14.7042 6.66663 15.0132 6.12496 15.416C6.66663 15.8188 7.26385 16.1278 7.91663 16.3431C8.5694 16.5584 9.26385 16.666 9.99996 16.666ZM9.99996 9.16602C10.3611 9.16602 10.6597 9.04796 10.8958 8.81185C11.1319 8.57574 11.25 8.27713 11.25 7.91602C11.25 7.5549 11.1319 7.25629 10.8958 7.02018C10.6597 6.78407 10.3611 6.66602 9.99996 6.66602C9.63885 6.66602 9.34024 6.78407 9.10413 7.02018C8.86801 7.25629 8.74996 7.5549 8.74996 7.91602C8.74996 8.27713 8.86801 8.57574 9.10413 8.81185C9.34024 9.04796 9.63885 9.16602 9.99996 9.16602Z" fill="#C8C8C8"/>
</g>
</svg>
