<svg width="20" height="20" viewBox="0 0 20 20" fill="none" xmlns="http://www.w3.org/2000/svg">
<mask id="mask0_34_5800" style="mask-type:alpha" maskUnits="userSpaceOnUse" x="0" y="0" width="20" height="20">
<rect width="20" height="20" fill="#D9D9D9"/>
</mask>
<g mask="url(#mask0_34_5800)">
<path d="M12.8334 10L6.31252 3.47917C6.2153 3.38194 6.16669 3.26389 6.16669 3.125C6.16669 2.98611 6.2153 2.86806 6.31252 2.77083C6.40974 2.67361 6.5278 2.625 6.66669 2.625C6.80558 2.625 6.92363 2.67361 7.02085 2.77083L13.375 9.125C13.5 9.25 13.5903 9.38889 13.6459 9.54167C13.7014 9.69445 13.7292 9.84722 13.7292 10C13.7292 10.1528 13.7014 10.3056 13.6459 10.4583C13.5903 10.6111 13.5 10.75 13.375 10.875L7.02085 17.2292C6.92363 17.3264 6.80558 17.375 6.66669 17.375C6.5278 17.375 6.40974 17.3264 6.31252 17.2292C6.2153 17.1319 6.16669 17.0139 6.16669 16.875C6.16669 16.7361 6.2153 16.6181 6.31252 16.5208L12.8334 10Z" fill="black"/>
</g>
</svg>
