<svg width="24" height="24" viewBox="0 0 24 24" fill="none" xmlns="http://www.w3.org/2000/svg">
<mask id="mask0_331_4420" style="mask-type:alpha" maskUnits="userSpaceOnUse" x="0" y="0" width="24" height="24">
<rect width="24" height="24" transform="matrix(-1 0 0 1 24 0)" fill="#D9D9D9"/>
</mask>
<g mask="url(#mask0_331_4420)">
<path d="M13.717 11.9998L9.72185 15.8998C9.53405 16.0831 9.44015 16.3165 9.44015 16.5998C9.44015 16.8831 9.53405 17.1165 9.72185 17.2998C9.90966 17.4831 10.1487 17.5748 10.4389 17.5748C10.7292 17.5748 10.9682 17.4831 11.156 17.2998L15.8682 12.6998C15.9706 12.5998 16.0432 12.4915 16.0859 12.3748C16.1286 12.2581 16.1499 12.1331 16.1499 11.9998C16.1499 11.8665 16.1286 11.7415 16.0859 11.6248C16.0432 11.5081 15.9706 11.3998 15.8682 11.2998L11.156 6.6998C10.9682 6.51647 10.7292 6.4248 10.4389 6.4248C10.1487 6.4248 9.90966 6.51647 9.72185 6.6998C9.53405 6.88314 9.44015 7.11647 9.44015 7.3998C9.44015 7.68314 9.53405 7.91647 9.72185 8.0998L13.717 11.9998Z" fill="#C8C8C8"/>
</g>
</svg>
