<svg width="40" height="40" viewBox="0 0 40 40" fill="none" xmlns="http://www.w3.org/2000/svg">
<rect width="40" height="40" rx="8" fill="#AC64FF" fill-opacity="0.5"/>
<mask id="mask0_331_1820" style="mask-type:alpha" maskUnits="userSpaceOnUse" x="8" y="8" width="24" height="24">
<rect x="8" y="8" width="24" height="24" fill="#D9D9D9"/>
</mask>
<g mask="url(#mask0_331_1820)">
<path d="M19.0001 15.8263L14.1001 20.7263C13.9001 20.9263 13.6668 21.0221 13.4001 21.0138C13.1334 21.0054 12.9001 20.9013 12.7001 20.7013C12.5168 20.5013 12.4209 20.2679 12.4126 20.0013C12.4043 19.7346 12.5001 19.5013 12.7001 19.3013L19.3001 12.7013C19.4001 12.6013 19.5084 12.5304 19.6251 12.4888C19.7418 12.4471 19.8668 12.4263 20.0001 12.4263C20.1334 12.4263 20.2584 12.4471 20.3751 12.4888C20.4918 12.5304 20.6001 12.6013 20.7001 12.7013L27.3001 19.3013C27.4834 19.4846 27.5751 19.7138 27.5751 19.9888C27.5751 20.2638 27.4834 20.5013 27.3001 20.7013C27.1001 20.9013 26.8626 21.0013 26.5876 21.0013C26.3126 21.0013 26.0751 20.9013 25.8751 20.7013L21.0001 15.8263V27.0013C21.0001 27.2846 20.9043 27.5221 20.7126 27.7138C20.5209 27.9054 20.2834 28.0013 20.0001 28.0013C19.7168 28.0013 19.4793 27.9054 19.2876 27.7138C19.0959 27.5221 19.0001 27.2846 19.0001 27.0013V15.8263Z" fill="white" fill-opacity="0.5"/>
</g>
</svg>
