<svg width="24" height="24" viewBox="0 0 24 24" fill="none" xmlns="http://www.w3.org/2000/svg">
<mask id="mask0_64_6610" style="mask-type:alpha" maskUnits="userSpaceOnUse" x="0" y="0" width="24" height="24">
<rect width="24" height="24" fill="#D9D9D9"/>
</mask>
<g mask="url(#mask0_64_6610)">
<path d="M13.3963 11.9998L9.123 7.72682C8.98467 7.58832 8.91384 7.43507 8.9105 7.26707C8.90734 7.09923 8.97817 6.94282 9.123 6.79782C9.268 6.65298 9.42283 6.58057 9.5875 6.58057C9.75217 6.58057 9.90975 6.65582 10.0603 6.80632L14.6963 11.4421C14.7731 11.5257 14.8308 11.6137 14.8693 11.7058C14.9078 11.798 14.927 11.8977 14.927 12.0048C14.927 12.112 14.9078 12.2117 14.8693 12.3038C14.8308 12.396 14.7731 12.4806 14.6963 12.5576L10.0603 17.1933C9.91625 17.3373 9.76442 17.4068 9.60475 17.4018C9.44525 17.3967 9.293 17.3217 9.148 17.1768C9.00317 17.0318 8.93075 16.877 8.93075 16.7123C8.93075 16.5477 9.00317 16.3928 9.148 16.2478L13.3963 11.9998Z" fill="#1C1B1F"/>
</g>
</svg>
