<svg width="28" height="28" viewBox="0 0 28 28" fill="none" xmlns="http://www.w3.org/2000/svg">
<mask id="mask0_64_6397" style="mask-type:alpha" maskUnits="userSpaceOnUse" x="0" y="0" width="28" height="28">
<rect width="28" height="28" fill="#D9D9D9"/>
</mask>
<g mask="url(#mask0_64_6397)">
<path d="M14 12.6L9.45002 17.15C9.23613 17.3639 8.96391 17.4709 8.63335 17.4709C8.30279 17.4709 8.03057 17.3639 7.81668 17.15C7.60279 16.9362 7.49585 16.6639 7.49585 16.3334C7.49585 16.0028 7.60279 15.7306 7.81668 15.5167L13.1833 10.15C13.4167 9.91672 13.6889 9.80005 14 9.80005C14.3111 9.80005 14.5833 9.91672 14.8167 10.15L20.1833 15.5167C20.3972 15.7306 20.5042 16.0028 20.5042 16.3334C20.5042 16.6639 20.3972 16.9362 20.1833 17.15C19.9695 17.3639 19.6972 17.4709 19.3667 17.4709C19.0361 17.4709 18.7639 17.3639 18.55 17.15L14 12.6Z" fill="#1C1B1F"/>
</g>
</svg>
