<svg width="24" height="24" viewBox="0 0 24 24" fill="none" xmlns="http://www.w3.org/2000/svg">
<mask id="mask0_64_6691" style="mask-type:alpha" maskUnits="userSpaceOnUse" x="0" y="0" width="24" height="24">
<rect width="24" height="24" fill="#D9D9D9"/>
</mask>
<g mask="url(#mask0_64_6691)">
<path d="M10.6037 12.0001L14.877 16.2731C15.0153 16.4116 15.0862 16.5648 15.0895 16.7328C15.0927 16.9006 15.0218 17.0571 14.877 17.2021C14.732 17.3469 14.5772 17.4193 14.4125 17.4193C14.2478 17.4193 14.0902 17.3441 13.9397 17.1936L9.30375 12.5578C9.22691 12.4741 9.16925 12.3862 9.13075 12.2941C9.09225 12.2019 9.073 12.1022 9.073 11.9951C9.073 11.8879 9.09225 11.7882 9.13075 11.6961C9.16925 11.6039 9.22691 11.5193 9.30375 11.4423L13.9397 6.80655C14.0837 6.66255 14.2397 6.58888 14.4077 6.58555C14.5756 6.58238 14.732 6.65322 14.877 6.79805C15.0218 6.94305 15.0942 7.09788 15.0942 7.26255C15.0942 7.42722 15.0218 7.58205 14.877 7.72705L10.6037 12.0001Z" fill="#1C1B1F"/>
</g>
</svg>
