<svg width="20" height="20" viewBox="0 0 20 20" fill="none" xmlns="http://www.w3.org/2000/svg">
<mask id="mask0_18_5384" style="mask-type:alpha" maskUnits="userSpaceOnUse" x="0" y="0" width="20" height="20">
<rect width="20" height="20" fill="#D9D9D9"/>
</mask>
<g mask="url(#mask0_18_5384)">
<path d="M13.7554 16C13.5435 16 13.3646 15.9281 13.2188 15.7844C13.0729 15.6406 13 15.4625 13 15.25V10.75C13 10.5375 13.0717 10.3594 13.215 10.2156C13.3585 10.0719 13.5362 10 13.7481 10H15.2446C15.4565 10 15.6354 10.0719 15.7812 10.2156C15.9271 10.3594 16 10.5375 16 10.75V15.25C16 15.4625 15.9283 15.6406 15.785 15.7844C15.6415 15.9281 15.4638 16 15.2519 16H13.7554ZM9.25542 16C9.04347 16 8.86458 15.9282 8.71875 15.7846C8.57292 15.6408 8.5 15.4628 8.5 15.2504V4.75604C8.5 4.54368 8.57167 4.36458 8.715 4.21875C8.85847 4.07292 9.03618 4 9.24813 4H10.7446C10.9565 4 11.1354 4.07181 11.2812 4.21542C11.4271 4.35917 11.5 4.53722 11.5 4.74958V15.244C11.5 15.4563 11.4283 15.6354 11.285 15.7812C11.1415 15.9271 10.9638 16 10.7519 16H9.25542ZM4.75542 16C4.54347 16 4.36458 15.9281 4.21875 15.7844C4.07292 15.6406 4 15.4625 4 15.25V8.74479C4 8.53993 4.07167 8.36458 4.215 8.21875C4.35847 8.07292 4.53618 8 4.74813 8H6.24458C6.45653 8 6.63542 8.07187 6.78125 8.21562C6.92708 8.35938 7 8.5375 7 8.75V15.2552C7 15.4601 6.92833 15.6354 6.785 15.7812C6.64153 15.9271 6.46382 16 6.25187 16H4.75542Z" fill="#C8C8C8"/>
</g>
</svg>
