<svg width="28" height="28" viewBox="0 0 28 28" fill="none" xmlns="http://www.w3.org/2000/svg">
<mask id="mask0_64_6380" style="mask-type:alpha" maskUnits="userSpaceOnUse" x="0" y="0" width="28" height="28">
<rect width="28" height="28" fill="#D9D9D9"/>
</mask>
<g mask="url(#mask0_64_6380)">
<path d="M14 16.4232C13.7143 16.4232 13.4709 16.3226 13.2696 16.1213C13.0686 15.9203 12.9681 15.6768 12.9681 15.391C12.9681 15.1053 13.0686 14.8619 13.2696 14.6606C13.4709 14.4596 13.7143 14.3591 14 14.3591C14.2856 14.3591 14.5291 14.4596 14.7303 14.6606C14.9314 14.8619 15.0319 15.1053 15.0319 15.391C15.0319 15.6768 14.9314 15.9203 14.7303 16.1213C14.5291 16.3226 14.2856 16.4232 14 16.4232ZM9.33331 16.4232C9.04767 16.4232 8.80423 16.3226 8.60298 16.1213C8.40192 15.9203 8.3014 15.6768 8.3014 15.391C8.3014 15.1053 8.40192 14.8619 8.60298 14.6606C8.80423 14.4596 9.04767 14.3591 9.33331 14.3591C9.61895 14.3591 9.8624 14.4596 10.0636 14.6606C10.2647 14.8619 10.3652 15.1053 10.3652 15.391C10.3652 15.6768 10.2647 15.9203 10.0636 16.1213C9.8624 16.3226 9.61895 16.4232 9.33331 16.4232ZM18.6666 16.4232C18.381 16.4232 18.1376 16.3226 17.9363 16.1213C17.7353 15.9203 17.6347 15.6768 17.6347 15.391C17.6347 15.1053 17.7353 14.8619 17.9363 14.6606C18.1376 14.4596 18.381 14.3591 18.6666 14.3591C18.9523 14.3591 19.1957 14.4596 19.397 14.6606C19.598 14.8619 19.6986 15.1053 19.6986 15.391C19.6986 15.6768 19.598 15.9203 19.397 16.1213C19.1957 16.3226 18.9523 16.4232 18.6666 16.4232ZM14 21C13.7143 21 13.4709 20.8994 13.2696 20.6981C13.0686 20.4971 12.9681 20.2537 12.9681 19.9681C12.9681 19.6823 13.0686 19.4388 13.2696 19.2378C13.4709 19.0365 13.7143 18.9359 14 18.9359C14.2856 18.9359 14.5291 19.0365 14.7303 19.2378C14.9314 19.4388 15.0319 19.6823 15.0319 19.9681C15.0319 20.2537 14.9314 20.4971 14.7303 20.6981C14.5291 20.8994 14.2856 21 14 21ZM9.33331 21C9.04767 21 8.80423 20.8994 8.60298 20.6981C8.40192 20.4971 8.3014 20.2537 8.3014 19.9681C8.3014 19.6823 8.40192 19.4388 8.60298 19.2378C8.80423 19.0365 9.04767 18.9359 9.33331 18.9359C9.61895 18.9359 9.8624 19.0365 10.0636 19.2378C10.2647 19.4388 10.3652 19.6823 10.3652 19.9681C10.3652 20.2537 10.2647 20.4971 10.0636 20.6981C9.8624 20.8994 9.61895 21 9.33331 21ZM18.6666 21C18.381 21 18.1376 20.8994 17.9363 20.6981C17.7353 20.4971 17.6347 20.2537 17.6347 19.9681C17.6347 19.6823 17.7353 19.4388 17.9363 19.2378C18.1376 19.0365 18.381 18.9359 18.6666 18.9359C18.9523 18.9359 19.1957 19.0365 19.397 19.2378C19.598 19.4388 19.6986 19.6823 19.6986 19.9681C19.6986 20.2537 19.598 20.4971 19.397 20.6981C19.1957 20.8994 18.9523 21 18.6666 21ZM6.19235 25.0834C5.60299 25.0834 5.10415 24.8792 4.69581 24.4708C4.28748 24.0625 4.08331 23.5637 4.08331 22.9743V7.35906C4.08331 6.7697 4.28748 6.27085 4.69581 5.86252C5.10415 5.45418 5.60299 5.25002 6.19235 5.25002H7.80761V2.78223H9.60252V5.25002H18.4424V2.78223H20.1924V5.25002H21.8076C22.397 5.25002 22.8958 5.45418 23.3041 5.86252C23.7125 6.27085 23.9166 6.7697 23.9166 7.35906V22.9743C23.9166 23.5637 23.7125 24.0625 23.3041 24.4708C22.8958 24.8792 22.397 25.0834 21.8076 25.0834H6.19235ZM6.19235 23.3334H21.8076C21.8974 23.3334 21.9797 23.2959 22.0544 23.2211C22.1292 23.1464 22.1666 23.0641 22.1666 22.9743V12.0257H5.83331V22.9743C5.83331 23.0641 5.87074 23.1464 5.94561 23.2211C6.02027 23.2959 6.10252 23.3334 6.19235 23.3334Z" fill="#C8C8C8"/>
</g>
</svg>
