<svg width="20" height="20" viewBox="0 0 20 20" fill="none" xmlns="http://www.w3.org/2000/svg">
<mask id="mask0_86_2031" style="mask-type:alpha" maskUnits="userSpaceOnUse" x="0" y="0" width="20" height="20">
<rect width="20" height="20" fill="#D9D9D9"/>
</mask>
<g mask="url(#mask0_86_2031)">
<path d="M8.76396 11.4027L6.80563 9.44438C6.67132 9.31021 6.50694 9.24542 6.3125 9.25C6.11806 9.25458 5.95368 9.32403 5.81937 9.45833C5.68521 9.59264 5.61813 9.75701 5.61813 9.95146C5.61813 10.1459 5.68521 10.3102 5.81937 10.4444L8.27771 12.889C8.4166 13.0278 8.57868 13.0973 8.76396 13.0973C8.9491 13.0973 9.11111 13.0278 9.25 12.889L14.25 7.88896C14.3843 7.75465 14.4515 7.59028 14.4515 7.39583C14.4515 7.20139 14.3843 7.03701 14.25 6.90271C14.1157 6.76854 13.9513 6.70146 13.7569 6.70146C13.5624 6.70146 13.3981 6.76854 13.264 6.90271L8.76396 11.4027ZM3.88896 17.5C3.51396 17.5 3.18868 17.3623 2.91313 17.0869C2.63771 16.8113 2.5 16.486 2.5 16.111V3.88896C2.5 3.51396 2.63771 3.18868 2.91313 2.91313C3.18868 2.63771 3.51396 2.5 3.88896 2.5H16.111C16.486 2.5 16.8113 2.63771 17.0869 2.91313C17.3623 3.18868 17.5 3.51396 17.5 3.88896V16.111C17.5 16.486 17.3623 16.8113 17.0869 17.0869C16.8113 17.3623 16.486 17.5 16.111 17.5H3.88896ZM3.88896 16.111H16.111V3.88896H3.88896V16.111Z" fill="#007DFC"/>
</g>
</svg>
