<svg width="28" height="28" viewBox="0 0 28 28" fill="none" xmlns="http://www.w3.org/2000/svg">
<mask id="mask0_70_1717" style="mask-type:alpha" maskUnits="userSpaceOnUse" x="0" y="0" width="28" height="28">
<rect width="28" height="28" fill="#D9D9D9"/>
</mask>
<g mask="url(#mask0_70_1717)">
<path d="M12.2695 15.9638L9.52788 13.2221C9.33985 13.0343 9.10972 12.9436 8.8375 12.95C8.56528 12.9564 8.33515 13.0536 8.14712 13.2417C7.95929 13.4297 7.86538 13.6598 7.86538 13.932C7.86538 14.2043 7.95929 14.4343 8.14712 14.6221L11.5888 18.0445C11.7832 18.239 12.0102 18.3362 12.2695 18.3362C12.5287 18.3362 12.7556 18.239 12.95 18.0445L19.95 11.0445C20.138 10.8565 20.232 10.6264 20.232 10.3542C20.232 10.0819 20.138 9.85182 19.95 9.66379C19.762 9.47596 19.5318 9.38204 19.2596 9.38204C18.9874 9.38204 18.7574 9.47596 18.5695 9.66379L12.2695 15.9638ZM5.44454 24.5C4.91954 24.5 4.46415 24.3072 4.07838 23.9216C3.69279 23.5358 3.5 23.0805 3.5 22.5555V5.44454C3.5 4.91954 3.69279 4.46415 4.07838 4.07838C4.46415 3.69279 4.91954 3.5 5.44454 3.5H22.5555C23.0805 3.5 23.5358 3.69279 23.9216 4.07838C24.3072 4.46415 24.5 4.91954 24.5 5.44454V22.5555C24.5 23.0805 24.3072 23.5358 23.9216 23.9216C23.5358 24.3072 23.0805 24.5 22.5555 24.5H5.44454ZM5.44454 22.5555H22.5555V5.44454H5.44454V22.5555Z" fill="#C8C8C8"/>
</g>
</svg>
