<svg width="24" height="24" viewBox="0 0 24 24" fill="none" xmlns="http://www.w3.org/2000/svg">
<mask id="mask0_471_15" style="mask-type:alpha" maskUnits="userSpaceOnUse" x="0" y="0" width="24" height="24">
<rect width="24" height="24" fill="#D9D9D9" style="fill:#D9D9D9;fill:color(display-p3 0.8510 0.8510 0.8510);fill-opacity:1;"/>
</mask>
<g mask="url(#mask0_471_15)">
<path d="M10.5168 13.6833L8.16675 11.3333C8.00558 11.1723 7.80833 11.0945 7.575 11.1C7.34167 11.1055 7.14442 11.1888 6.98325 11.35C6.82225 11.5112 6.74175 11.7084 6.74175 11.9418C6.74175 12.1751 6.82225 12.3723 6.98325 12.5333L9.93325 15.4668C10.0999 15.6334 10.2944 15.7168 10.5168 15.7168C10.7389 15.7168 10.9333 15.6334 11.1 15.4668L17.1 9.46675C17.2612 9.30558 17.3418 9.10833 17.3418 8.875C17.3418 8.64167 17.2612 8.44442 17.1 8.28325C16.9388 8.12225 16.7416 8.04175 16.5083 8.04175C16.2749 8.04175 16.0778 8.12225 15.9168 8.28325L10.5168 13.6833ZM4.66675 21C4.21675 21 3.82642 20.8348 3.49575 20.5043C3.16525 20.1736 3 19.7833 3 19.3333V4.66675C3 4.21675 3.16525 3.82642 3.49575 3.49575C3.82642 3.16525 4.21675 3 4.66675 3H19.3333C19.7833 3 20.1736 3.16525 20.5043 3.49575C20.8348 3.82642 21 4.21675 21 4.66675V19.3333C21 19.7833 20.8348 20.1736 20.5043 20.5043C20.1736 20.8348 19.7833 21 19.3333 21H4.66675ZM4.66675 19.3333H19.3333V4.66675H4.66675V19.3333Z" fill="#D68C45" style="fill:#D68C45;fill:color(display-p3 0.8392 0.5490 0.2706);fill-opacity:1;"/>
</g>
</svg>
