<svg width="20" height="20" viewBox="0 0 20 20" fill="none" xmlns="http://www.w3.org/2000/svg">
<mask id="mask0_64_6408" style="mask-type:alpha" maskUnits="userSpaceOnUse" x="0" y="0" width="20" height="20">
<rect width="20" height="20" fill="#D9D9D9"/>
</mask>
<g mask="url(#mask0_64_6408)">
<path d="M4.75648 16.5834C4.38134 16.5834 4.06426 16.4539 3.80523 16.1949C3.5462 15.9358 3.41669 15.6188 3.41669 15.2436V4.75654C3.41669 4.3814 3.5462 4.06432 3.80523 3.80529C4.06426 3.54626 4.38134 3.41675 4.75648 3.41675H15.2436C15.6187 3.41675 15.9358 3.54626 16.1948 3.80529C16.4538 4.06432 16.5834 4.3814 16.5834 4.75654V15.2436C16.5834 15.6188 16.4538 15.9358 16.1948 16.1949C15.9358 16.4539 15.6187 16.5834 15.2436 16.5834H4.75648ZM4.75648 15.5001H15.2436C15.3077 15.5001 15.3665 15.4733 15.4198 15.4199C15.4733 15.3665 15.5 15.3078 15.5 15.2436V4.75654C15.5 4.69237 15.4733 4.63362 15.4198 4.58029C15.3665 4.52682 15.3077 4.50008 15.2436 4.50008H4.75648C4.69231 4.50008 4.63356 4.52682 4.58023 4.58029C4.52676 4.63362 4.50002 4.69237 4.50002 4.75654V15.2436C4.50002 15.3078 4.52676 15.3665 4.58023 15.4199C4.63356 15.4733 4.69231 15.5001 4.75648 15.5001Z" fill="#1C1B1F"/>
</g>
</svg>
