<svg width="24" height="24" viewBox="0 0 24 24" fill="none" xmlns="http://www.w3.org/2000/svg">
<mask id="mask0_331_2137" style="mask-type:alpha" maskUnits="userSpaceOnUse" x="0" y="0" width="24" height="24">
<rect width="24" height="24" fill="#D9D9D9"/>
</mask>
<g mask="url(#mask0_331_2137)">
<path d="M4.66675 21C4.21675 21 3.82642 20.8348 3.49575 20.5043C3.16525 20.1736 3 19.7833 3 19.3333V4.66675C3 4.21675 3.16525 3.82642 3.49575 3.49575C3.82642 3.16525 4.21675 3 4.66675 3H19.3333C19.7833 3 20.1736 3.16525 20.5043 3.49575C20.8348 3.82642 21 4.21675 21 4.66675V19.3333C21 19.7833 20.8348 20.1736 20.5043 20.5043C20.1736 20.8348 19.7833 21 19.3333 21H4.66675ZM4.66675 19.3333H19.3333V4.66675H4.66675V19.3333Z" fill="#646464"/>
</g>
</svg>
