<svg width="20" height="20" viewBox="0 0 20 20" fill="none" xmlns="http://www.w3.org/2000/svg">
<mask id="mask0_86_4769" style="mask-type:alpha" maskUnits="userSpaceOnUse" x="0" y="0" width="20" height="20">
<rect width="20" height="20" fill="#D9D9D9"/>
</mask>
<g mask="url(#mask0_86_4769)">
<path d="M8.93685 11.1639L7.54268 9.79033C7.42727 9.67505 7.30303 9.61602 7.16997 9.61324C7.03706 9.6106 6.91018 9.66963 6.78935 9.79033C6.66865 9.91116 6.60831 10.0402 6.60831 10.1774C6.60831 10.3146 6.66865 10.4437 6.78935 10.5645L8.47206 12.2472C8.60372 12.3839 8.7574 12.4522 8.9331 12.4522C9.10865 12.4522 9.26484 12.3839 9.40164 12.2472L13.2254 8.42345C13.3407 8.30803 13.3997 8.18033 13.4025 8.04033C13.4051 7.90046 13.3461 7.77012 13.2254 7.64928C13.1046 7.52859 12.979 7.46824 12.8487 7.46824C12.7184 7.46824 12.5929 7.52859 12.4721 7.64928L8.93685 11.1639ZM4.75581 16.5837C4.38067 16.5837 4.06358 16.4541 3.80456 16.1951C3.54553 15.9361 3.41602 15.619 3.41602 15.2439V4.75678C3.41602 4.38164 3.54553 4.06456 3.80456 3.80553C4.06358 3.54651 4.38067 3.41699 4.75581 3.41699H15.2429C15.618 3.41699 15.9351 3.54651 16.1941 3.80553C16.4532 4.06456 16.5827 4.38164 16.5827 4.75678V15.2439C16.5827 15.619 16.4532 15.9361 16.1941 16.1951C15.9351 16.4541 15.618 16.5837 15.2429 16.5837H4.75581ZM4.75581 15.5003H15.2429C15.3071 15.5003 15.3658 15.4736 15.4191 15.4201C15.4726 15.3668 15.4993 15.308 15.4993 15.2439V4.75678C15.4993 4.69262 15.4726 4.63387 15.4191 4.58053C15.3658 4.52706 15.3071 4.50033 15.2429 4.50033H4.75581C4.69164 4.50033 4.63289 4.52706 4.57956 4.58053C4.52609 4.63387 4.49935 4.69262 4.49935 4.75678V15.2439C4.49935 15.308 4.52609 15.3668 4.57956 15.4201C4.63289 15.4736 4.69164 15.5003 4.75581 15.5003Z" fill="#FF6464"/>
</g>
</svg>
