<svg width="28" height="28" viewBox="0 0 28 28" fill="none" xmlns="http://www.w3.org/2000/svg">
<mask id="mask0_70_1720" style="mask-type:alpha" maskUnits="userSpaceOnUse" x="0" y="0" width="28" height="28">
<rect width="28" height="28" fill="#D9D9D9"/>
</mask>
<g mask="url(#mask0_70_1720)">
<path d="M5.44454 24.5C4.91954 24.5 4.46415 24.3072 4.07838 23.9216C3.69279 23.5358 3.5 23.0805 3.5 22.5555V5.44454C3.5 4.91954 3.69279 4.46415 4.07838 4.07838C4.46415 3.69279 4.91954 3.5 5.44454 3.5H22.5555C23.0805 3.5 23.5358 3.69279 23.9216 4.07838C24.3072 4.46415 24.5 4.91954 24.5 5.44454V22.5555C24.5 23.0805 24.3072 23.5358 23.9216 23.9216C23.5358 24.3072 23.0805 24.5 22.5555 24.5H5.44454ZM5.44454 22.5555H22.5555V5.44454H5.44454V22.5555Z" fill="#C8C8C8"/>
</g>
</svg>
