<svg width="80" height="80" viewBox="0 0 80 80" fill="none" xmlns="http://www.w3.org/2000/svg">
<rect width="80" height="80" rx="40" fill="#C8C8C8"/>
<mask id="mask0_331_2115" style="mask-type:alpha" maskUnits="userSpaceOnUse" x="20" y="20" width="40" height="40">
<rect x="20" y="20" width="40" height="40" fill="#D9D9D9"/>
</mask>
<g mask="url(#mask0_331_2115)">
<path d="M40 55C39.5278 55 39.1319 54.8403 38.8125 54.5208C38.4931 54.2014 38.3333 53.8056 38.3333 53.3333V41.6667H26.6667C26.1944 41.6667 25.7986 41.5069 25.4792 41.1875C25.1597 40.8681 25 40.4722 25 40C25 39.5278 25.1597 39.1319 25.4792 38.8125C25.7986 38.4931 26.1944 38.3333 26.6667 38.3333H38.3333V26.6667C38.3333 26.1944 38.4931 25.7986 38.8125 25.4792C39.1319 25.1597 39.5278 25 40 25C40.4722 25 40.8681 25.1597 41.1875 25.4792C41.5069 25.7986 41.6667 26.1944 41.6667 26.6667V38.3333H53.3333C53.8056 38.3333 54.2014 38.4931 54.5208 38.8125C54.8403 39.1319 55 39.5278 55 40C55 40.4722 54.8403 40.8681 54.5208 41.1875C54.2014 41.5069 53.8056 41.6667 53.3333 41.6667H41.6667V53.3333C41.6667 53.8056 41.5069 54.2014 41.1875 54.5208C40.8681 54.8403 40.4722 55 40 55Z" fill="white"/>
</g>
</svg>
