<svg width="20" height="20" viewBox="0 0 20 20" fill="none" xmlns="http://www.w3.org/2000/svg">
<mask id="mask0_307_3860" style="mask-type:alpha" maskUnits="userSpaceOnUse" x="0" y="0" width="20" height="20">
<rect width="20" height="20" fill="#D9D9D9"/>
</mask>
<g mask="url(#mask0_307_3860)">
<path d="M9.99996 18.3327C8.86107 18.3327 7.78468 18.1139 6.77079 17.6764C5.7569 17.2389 4.87149 16.6417 4.11454 15.8848C3.3576 15.1278 2.76038 14.2424 2.32288 13.2285C1.88538 12.2146 1.66663 11.1382 1.66663 9.99935C1.66663 8.84657 1.88538 7.76671 2.32288 6.75977C2.76038 5.75282 3.3576 4.87088 4.11454 4.11393C4.87149 3.35699 5.7569 2.75977 6.77079 2.32227C7.78468 1.88477 8.86107 1.66602 9.99996 1.66602C11.1527 1.66602 12.2326 1.88477 13.2395 2.32227C14.2465 2.75977 15.1284 3.35699 15.8854 4.11393C16.6423 4.87088 17.2395 5.75282 17.677 6.75977C18.1145 7.76671 18.3333 8.84657 18.3333 9.99935C18.3333 11.1382 18.1145 12.2146 17.677 13.2285C17.2395 14.2424 16.6423 15.1278 15.8854 15.8848C15.1284 16.6417 14.2465 17.2389 13.2395 17.6764C12.2326 18.1139 11.1527 18.3327 9.99996 18.3327ZM9.99996 16.6243C10.3611 16.1243 10.6736 15.6035 10.9375 15.0618C11.2013 14.5202 11.4166 13.9438 11.5833 13.3327H8.41663C8.58329 13.9438 8.79857 14.5202 9.06246 15.0618C9.32635 15.6035 9.63885 16.1243 9.99996 16.6243ZM7.83329 16.291C7.58329 15.8327 7.36454 15.357 7.17704 14.8639C6.98954 14.3709 6.83329 13.8605 6.70829 13.3327H4.24996C4.65274 14.0271 5.15621 14.6313 5.76038 15.1452C6.36454 15.6591 7.05551 16.041 7.83329 16.291ZM12.1666 16.291C12.9444 16.041 13.6354 15.6591 14.2395 15.1452C14.8437 14.6313 15.3472 14.0271 15.75 13.3327H13.2916C13.1666 13.8605 13.0104 14.3709 12.8229 14.8639C12.6354 15.357 12.4166 15.8327 12.1666 16.291ZM3.54163 11.666H6.37496C6.33329 11.3882 6.30204 11.1139 6.28121 10.8431C6.26038 10.5723 6.24996 10.291 6.24996 9.99935C6.24996 9.70768 6.26038 9.42643 6.28121 9.1556C6.30204 8.88477 6.33329 8.61046 6.37496 8.33268H3.54163C3.47218 8.61046 3.4201 8.88477 3.38538 9.1556C3.35065 9.42643 3.33329 9.70768 3.33329 9.99935C3.33329 10.291 3.35065 10.5723 3.38538 10.8431C3.4201 11.1139 3.47218 11.3882 3.54163 11.666ZM8.04163 11.666H11.9583C12 11.3882 12.0312 11.1139 12.052 10.8431C12.0729 10.5723 12.0833 10.291 12.0833 9.99935C12.0833 9.70768 12.0729 9.42643 12.052 9.1556C12.0312 8.88477 12 8.61046 11.9583 8.33268H8.04163C7.99996 8.61046 7.96871 8.88477 7.94788 9.1556C7.92704 9.42643 7.91663 9.70768 7.91663 9.99935C7.91663 10.291 7.92704 10.5723 7.94788 10.8431C7.96871 11.1139 7.99996 11.3882 8.04163 11.666ZM13.625 11.666H16.4583C16.5277 11.3882 16.5798 11.1139 16.6145 10.8431C16.6493 10.5723 16.6666 10.291 16.6666 9.99935C16.6666 9.70768 16.6493 9.42643 16.6145 9.1556C16.5798 8.88477 16.5277 8.61046 16.4583 8.33268H13.625C13.6666 8.61046 13.6979 8.88477 13.7187 9.1556C13.7395 9.42643 13.75 9.70768 13.75 9.99935C13.75 10.291 13.7395 10.5723 13.7187 10.8431C13.6979 11.1139 13.6666 11.3882 13.625 11.666ZM13.2916 6.66602H15.75C15.3472 5.97157 14.8437 5.3674 14.2395 4.85352C13.6354 4.33963 12.9444 3.95768 12.1666 3.70768C12.4166 4.16602 12.6354 4.64171 12.8229 5.13477C13.0104 5.62782 13.1666 6.13824 13.2916 6.66602ZM8.41663 6.66602H11.5833C11.4166 6.0549 11.2013 5.47852 10.9375 4.93685C10.6736 4.39518 10.3611 3.87435 9.99996 3.37435C9.63885 3.87435 9.32635 4.39518 9.06246 4.93685C8.79857 5.47852 8.58329 6.0549 8.41663 6.66602ZM4.24996 6.66602H6.70829C6.83329 6.13824 6.98954 5.62782 7.17704 5.13477C7.36454 4.64171 7.58329 4.16602 7.83329 3.70768C7.05551 3.95768 6.36454 4.33963 5.76038 4.85352C5.15621 5.3674 4.65274 5.97157 4.24996 6.66602Z" fill="#C8C8C8"/>
</g>
</svg>
