<svg width="71" height="19" viewBox="0 0 71 19" fill="none" xmlns="http://www.w3.org/2000/svg">
<path d="M70.4258 10.5295L68.1181 11.0295L66.5796 12.0295L65.0412 14.5295L62.7335 13.0295L59.6566 11.5295V8.52954L57.3489 7.52954L55.8104 5.52954L54.2719 1.52954L52.7335 6.52954L51.195 8.52954L48.8873 10.0295L45.8104 9.02954L42.7335 6.02954L41.195 10.0295L38.8873 8.02954L35.8104 10.5295L34.2719 9.02954L31.9642 7.52954L28.8873 7.02954L27.4433 4.52954L24.9872 7.52954L23.5027 10.0295V13.0295L21.9642 17.5295L19.6566 15.5295L16.5796 16.0295L14.2719 15.0295L12.7335 17.5295L11.195 15.5295L8.88732 15.0295L6.57963 17.5295L5.8104 15.0295L1.96424 10.5295L0.425782 13.0295" stroke="#0082FF"/>
</svg>
