<svg width="20" height="20" viewBox="0 0 20 20" fill="none" xmlns="http://www.w3.org/2000/svg">
<mask id="mask0_18_5377" style="mask-type:alpha" maskUnits="userSpaceOnUse" x="0" y="0" width="20" height="20">
<rect width="20" height="20" fill="#D9D9D9"/>
</mask>
<g mask="url(#mask0_18_5377)">
<path d="M4.60417 17.5C3.97917 17.5 3.47222 17.3333 3.08333 17C2.69444 16.6667 2.5 16.2222 2.5 15.6667C2.5 15.2222 2.61806 14.8646 2.85417 14.5938C3.09028 14.3229 3.38889 14.1875 3.75 14.1875C4.09722 14.1875 4.39236 14.3056 4.63542 14.5417C4.87847 14.7778 5 15.0625 5 15.3958C5 15.4653 4.99653 15.5278 4.98958 15.5833C4.98264 15.6389 4.97222 15.7014 4.95833 15.7708C5.02778 15.7569 5.08681 15.7188 5.13542 15.6562C5.18403 15.5938 5.22222 15.5069 5.25 15.3958L6.54167 8.33333H5C4.76389 8.33333 4.56597 8.25347 4.40625 8.09375C4.24653 7.93403 4.16667 7.73611 4.16667 7.5C4.16667 7.26389 4.24653 7.06597 4.40625 6.90625C4.56597 6.74653 4.76389 6.66667 5 6.66667H6.85417L7.29167 4.29167C7.38889 3.76389 7.64931 3.33333 8.07292 3C8.49653 2.66667 9 2.5 9.58333 2.5C10.1944 2.5 10.6944 2.68056 11.0833 3.04167C11.4722 3.40278 11.6667 3.85417 11.6667 4.39583C11.6667 4.8125 11.5486 5.15625 11.3125 5.42708C11.0764 5.69792 10.7778 5.83333 10.4167 5.83333C10.0694 5.83333 9.77431 5.71528 9.53125 5.47917C9.28819 5.24306 9.16667 4.95139 9.16667 4.60417C9.16667 4.53472 9.17014 4.47222 9.17708 4.41667C9.18403 4.36111 9.19444 4.29861 9.20833 4.22917C9.125 4.25694 9.0625 4.29861 9.02083 4.35417C8.97917 4.40972 8.94444 4.49306 8.91667 4.60417L8.5625 6.66667H11.6667C11.9028 6.66667 12.1007 6.74653 12.2604 6.90625C12.4201 7.06597 12.5 7.26389 12.5 7.5C12.5 7.70833 12.434 7.88889 12.3021 8.04167C12.1701 8.19444 12.0069 8.28472 11.8125 8.3125L12.9167 9.5625L14.0208 8.3125C13.8264 8.28472 13.6632 8.19444 13.5312 8.04167C13.3993 7.88889 13.3333 7.70833 13.3333 7.5C13.3333 7.26389 13.4132 7.06597 13.5729 6.90625C13.7326 6.74653 13.9306 6.66667 14.1667 6.66667H16.6667C16.9028 6.66667 17.1007 6.74653 17.2604 6.90625C17.4201 7.06597 17.5 7.26389 17.5 7.5C17.5 7.73611 17.4201 7.93403 17.2604 8.09375C17.1007 8.25347 16.9028 8.33333 16.6667 8.33333H16.2083L14.0208 10.8333L16.2083 13.3333H16.6667C16.9028 13.3333 17.1007 13.4132 17.2604 13.5729C17.4201 13.7326 17.5 13.9306 17.5 14.1667C17.5 14.4028 17.4201 14.6007 17.2604 14.7604C17.1007 14.9201 16.9028 15 16.6667 15H14.1667C13.9306 15 13.7326 14.9201 13.5729 14.7604C13.4132 14.6007 13.3333 14.4028 13.3333 14.1667C13.3333 13.9583 13.3993 13.7778 13.5312 13.625C13.6632 13.4722 13.8264 13.3819 14.0208 13.3542L12.9167 12.0833L11.8125 13.3542C12.0069 13.3819 12.1701 13.4722 12.3021 13.625C12.434 13.7778 12.5 13.9583 12.5 14.1667C12.5 14.4028 12.4201 14.6007 12.2604 14.7604C12.1007 14.9201 11.9028 15 11.6667 15H9.16667C8.93056 15 8.73264 14.9201 8.57292 14.7604C8.41319 14.6007 8.33333 14.4028 8.33333 14.1667C8.33333 13.9306 8.41319 13.7326 8.57292 13.5729C8.73264 13.4132 8.93056 13.3333 9.16667 13.3333H9.625L11.8125 10.8333L9.625 8.33333H8.25L6.91667 15.5C6.80556 16.125 6.54861 16.6146 6.14583 16.9688C5.74306 17.3229 5.22917 17.5 4.60417 17.5Z" fill="#C8C8C8"/>
</g>
</svg>
