<svg width="20" height="20" viewBox="0 0 20 20" fill="none" xmlns="http://www.w3.org/2000/svg">
<mask id="mask0_307_3873" style="mask-type:alpha" maskUnits="userSpaceOnUse" x="0" y="0" width="20" height="20">
<rect width="20" height="20" fill="#D9D9D9"/>
</mask>
<g mask="url(#mask0_307_3873)">
<path d="M9.95829 14.9993C10.25 14.9993 10.4965 14.8987 10.6979 14.6973C10.8993 14.4959 11 14.2493 11 13.9577C11 13.666 10.8993 13.4195 10.6979 13.2181C10.4965 13.0167 10.25 12.916 9.95829 12.916C9.66663 12.916 9.4201 13.0167 9.21871 13.2181C9.01732 13.4195 8.91663 13.666 8.91663 13.9577C8.91663 14.2493 9.01732 14.4959 9.21871 14.6973C9.4201 14.8987 9.66663 14.9993 9.95829 14.9993ZM9.99996 18.3327C8.84718 18.3327 7.76385 18.1139 6.74996 17.6764C5.73607 17.2389 4.85413 16.6452 4.10413 15.8952C3.35413 15.1452 2.76038 14.2632 2.32288 13.2493C1.88538 12.2355 1.66663 11.1521 1.66663 9.99935C1.66663 8.84657 1.88538 7.76324 2.32288 6.74935C2.76038 5.73546 3.35413 4.85352 4.10413 4.10352C4.85413 3.35352 5.73607 2.75977 6.74996 2.32227C7.76385 1.88477 8.84718 1.66602 9.99996 1.66602C11.1527 1.66602 12.2361 1.88477 13.25 2.32227C14.2638 2.75977 15.1458 3.35352 15.8958 4.10352C16.6458 4.85352 17.2395 5.73546 17.677 6.74935C18.1145 7.76324 18.3333 8.84657 18.3333 9.99935C18.3333 11.1521 18.1145 12.2355 17.677 13.2493C17.2395 14.2632 16.6458 15.1452 15.8958 15.8952C15.1458 16.6452 14.2638 17.2389 13.25 17.6764C12.2361 18.1139 11.1527 18.3327 9.99996 18.3327ZM9.99996 16.666C11.8611 16.666 13.4375 16.0202 14.7291 14.7285C16.0208 13.4368 16.6666 11.8605 16.6666 9.99935C16.6666 8.13824 16.0208 6.56185 14.7291 5.27018C13.4375 3.97852 11.8611 3.33268 9.99996 3.33268C8.13885 3.33268 6.56246 3.97852 5.27079 5.27018C3.97913 6.56185 3.33329 8.13824 3.33329 9.99935C3.33329 11.8605 3.97913 13.4368 5.27079 14.7285C6.56246 16.0202 8.13885 16.666 9.99996 16.666ZM10.0833 6.41602C10.4305 6.41602 10.7326 6.52713 10.9895 6.74935C11.2465 6.97157 11.375 7.24935 11.375 7.58268C11.375 7.88824 11.2812 8.15907 11.0937 8.39518C10.9062 8.63129 10.6944 8.85352 10.4583 9.06185C10.1388 9.33963 9.8576 9.64518 9.61454 9.97852C9.37149 10.3118 9.24996 10.6868 9.24996 11.1035C9.24996 11.298 9.32288 11.4612 9.46871 11.5931C9.61454 11.725 9.78468 11.791 9.97913 11.791C10.1875 11.791 10.3645 11.7216 10.5104 11.5827C10.6562 11.4438 10.75 11.2702 10.7916 11.0618C10.8472 10.7702 10.9722 10.5098 11.1666 10.2806C11.3611 10.0514 11.5694 9.83268 11.7916 9.62435C12.1111 9.31879 12.3854 8.98546 12.6145 8.62435C12.8437 8.26324 12.9583 7.86046 12.9583 7.41602C12.9583 6.70768 12.6701 6.12782 12.0937 5.67643C11.5173 5.22504 10.8472 4.99935 10.0833 4.99935C9.55551 4.99935 9.05204 5.11046 8.57288 5.33268C8.09371 5.5549 7.72913 5.89518 7.47913 6.35352C7.3819 6.52018 7.35065 6.69727 7.38538 6.88477C7.4201 7.07227 7.51385 7.21463 7.66663 7.31185C7.86107 7.42296 8.06246 7.45768 8.27079 7.41602C8.47913 7.37435 8.65274 7.25629 8.79163 7.06185C8.9444 6.85352 9.13538 6.69379 9.36454 6.58268C9.59371 6.47157 9.83329 6.41602 10.0833 6.41602Z" fill="#C8C8C8"/>
</g>
</svg>
