<svg width="24" height="24" viewBox="0 0 24 24" fill="none" xmlns="http://www.w3.org/2000/svg">
<mask id="mask0_1296_6332" style="mask-type:alpha" maskUnits="userSpaceOnUse" x="0" y="0" width="24" height="24">
<rect width="24" height="24" fill="#D9D9D9" style="fill:#D9D9D9;fill:color(display-p3 0.8510 0.8510 0.8510);fill-opacity:1;"/>
</mask>
<g mask="url(#mask0_1296_6332)">
<path d="M11.9967 18.0004C12.3318 18.0004 12.6161 17.8846 12.8494 17.6531C13.0827 17.4218 13.1994 17.1385 13.1994 16.8031C13.1994 16.468 13.0837 16.1837 12.8522 15.9504C12.6208 15.7171 12.3375 15.6004 12.0022 15.6004C11.667 15.6004 11.3827 15.7161 11.1494 15.9476C10.9161 16.179 10.7994 16.4623 10.7994 16.7976C10.7994 17.1328 10.9152 17.4171 11.1467 17.6504C11.378 17.8837 11.6613 18.0004 11.9967 18.0004ZM12.0064 21.6004C10.6851 21.6004 9.44108 21.3504 8.27441 20.8504C7.10775 20.3504 6.08691 19.6629 5.21191 18.7879C4.33691 17.9129 3.64941 16.8924 3.14941 15.7264C2.64941 14.5604 2.39941 13.3146 2.39941 11.9889C2.39941 10.6632 2.64941 9.42122 3.14941 8.26289C3.64941 7.10456 4.33691 6.08789 5.21191 5.21289C6.08691 4.33789 7.10741 3.65039 8.27341 3.15039C9.43941 2.65039 10.6852 2.40039 12.0109 2.40039C13.3366 2.40039 14.5786 2.65039 15.7369 3.15039C16.8952 3.65039 17.9119 4.33789 18.7869 5.21289C19.6619 6.08789 20.3494 7.10639 20.8494 8.26839C21.3494 9.43056 21.5994 10.6722 21.5994 11.9934C21.5994 13.3147 21.3494 14.5587 20.8494 15.7254C20.3494 16.8921 19.6619 17.9129 18.7869 18.7879C17.9119 19.6629 16.8934 20.3504 15.7314 20.8504C14.5692 21.3504 13.3276 21.6004 12.0064 21.6004ZM12.0797 7.75039C12.4852 7.75039 12.8482 7.87689 13.1687 8.12989C13.4892 8.38289 13.6494 8.69914 13.6494 9.07864C13.6494 9.42647 13.5437 9.74206 13.3322 10.0254C13.1205 10.3087 12.8762 10.5671 12.5994 10.8004C12.2161 11.1337 11.8661 11.5004 11.5494 11.9004C11.2327 12.3004 11.0744 12.7504 11.0744 13.2504C11.0744 13.5004 11.1634 13.7087 11.3414 13.8754C11.5194 14.0421 11.7271 14.1254 11.9644 14.1254C12.2322 14.1254 12.4592 14.0379 12.6452 13.8629C12.8313 13.6879 12.9494 13.4671 12.9994 13.2004C13.0661 12.8504 13.2161 12.5409 13.4494 12.2719C13.6827 12.0031 13.9327 11.7464 14.1994 11.5019C14.5827 11.1509 14.9077 10.753 15.1744 10.3081C15.4411 9.86331 15.5744 9.38572 15.5744 8.87539C15.5744 8.02539 15.2286 7.32956 14.5369 6.78789C13.8452 6.24622 13.0403 5.97539 12.1222 5.97539C11.4878 5.97539 10.888 6.11706 10.3227 6.40039C9.75716 6.68372 9.28975 7.09431 8.92041 7.63214C8.78975 7.81231 8.75358 8.01039 8.81191 8.22639C8.87025 8.44239 8.99108 8.62539 9.17441 8.77539C9.40775 8.95872 9.65775 9.01289 9.92441 8.93789C10.1911 8.86289 10.4161 8.70872 10.5994 8.47539C10.7827 8.24206 11.0023 8.06289 11.2582 7.93789C11.514 7.81289 11.7878 7.75039 12.0797 7.75039Z" fill="#C8C8C8" style="fill:#C8C8C8;fill:color(display-p3 0.7843 0.7843 0.7843);fill-opacity:1;"/>
</g>
</svg>
