<svg width="20" height="20" viewBox="0 0 20 20" fill="none" xmlns="http://www.w3.org/2000/svg">
<path fill-rule="evenodd" clip-rule="evenodd" d="M16.9406 7.83613C17.2964 8.15241 17.5 8.60404 17.5 9.0801C17.5 9.8914 17.5 12.6838 17.5 14.8326C17.5 15.7657 17.5 16.2323 17.3183 16.5888C17.1586 16.9024 16.9036 17.1574 16.59 17.3172C16.2335 17.4988 15.7668 17.4988 14.8333 17.4988H14.3333C13.3999 17.4988 12.9332 17.4988 12.5767 17.3172C12.2631 17.1574 12.0081 16.9024 11.8483 16.5888C11.6667 16.2323 11.6667 15.7656 11.6667 14.8322V12.5001C11.6667 11.5796 10.9205 10.8334 10 10.8334C9.07953 10.8334 8.33333 11.5796 8.33333 12.5001V14.8328C8.33333 15.766 8.33333 16.2326 8.15171 16.5891C7.99196 16.9026 7.73702 17.1576 7.42348 17.3174C7.06701 17.4991 6.60043 17.4992 5.66726 17.4993C5.49965 17.4993 5.33218 17.4994 5.16668 17.4994C4.23339 17.4995 3.76674 17.4996 3.41017 17.318C3.09652 17.1582 2.84151 16.9032 2.68169 16.5896C2.5 16.233 2.5 15.7663 2.5 14.8327V9.08185C2.5 8.60579 2.70358 8.15245 3.05939 7.83617L8.89273 2.65097C9.52421 2.08965 10.4758 2.08965 11.1073 2.65096L16.9406 7.83613Z" fill="#C8C8C8"/>
</svg>
