<svg width="18" height="18" viewBox="0 0 18 18" fill="none" xmlns="http://www.w3.org/2000/svg">
<mask id="mask0_331_2124" style="mask-type:alpha" maskUnits="userSpaceOnUse" x="0" y="0" width="18" height="18">
<rect width="18" height="18" fill="#D9D9D9"/>
</mask>
<g mask="url(#mask0_331_2124)">
<path d="M8.99961 11.231C8.89961 11.231 8.80586 11.2154 8.71836 11.1841C8.63086 11.1529 8.54961 11.0997 8.47461 11.0247L5.02461 7.57473C4.88711 7.43723 4.81836 7.26223 4.81836 7.04973C4.81836 6.83723 4.88711 6.66223 5.02461 6.52473C5.16211 6.38723 5.33711 6.31848 5.54961 6.31848C5.76211 6.31848 5.93711 6.38723 6.07461 6.52473L8.99961 9.44973L11.9246 6.52473C12.0621 6.38723 12.2371 6.31848 12.4496 6.31848C12.6621 6.31848 12.8371 6.38723 12.9746 6.52473C13.1121 6.66223 13.1809 6.83723 13.1809 7.04973C13.1809 7.26223 13.1121 7.43723 12.9746 7.57473L9.52461 11.0247C9.44961 11.0997 9.36836 11.1529 9.28086 11.1841C9.19336 11.2154 9.09961 11.231 8.99961 11.231Z" fill="white"/>
</g>
</svg>
