<svg width="20" height="20" viewBox="0 0 20 20" fill="none" xmlns="http://www.w3.org/2000/svg">
<mask id="mask0_692_2357" style="mask-type:alpha" maskUnits="userSpaceOnUse" x="0" y="0" width="20" height="20">
<rect width="20" height="20" fill="#D9D9D9" style="fill:#D9D9D9;fill:color(display-p3 0.8510 0.8510 0.8510);fill-opacity:1;"/>
</mask>
<g mask="url(#mask0_692_2357)">
<path d="M6.03217 13.6156C5.03189 13.6156 4.17925 13.2627 3.47425 12.5568C2.76925 11.851 2.41675 10.9974 2.41675 9.99602C2.41675 8.99449 2.76925 8.14227 3.47425 7.43935C4.17925 6.73629 5.03189 6.38477 6.03217 6.38477H8.29821C8.45168 6.38477 8.58029 6.43629 8.68404 6.53935C8.78793 6.6424 8.83987 6.77011 8.83987 6.92247C8.83987 7.0747 8.78793 7.20372 8.68404 7.30956C8.58029 7.41525 8.45168 7.4681 8.29821 7.4681H6.03112C5.33196 7.4681 4.73536 7.71518 4.24133 8.20935C3.74716 8.70351 3.50008 9.30046 3.50008 10.0002C3.50008 10.6999 3.74716 11.2968 4.24133 11.791C4.73536 12.2852 5.33196 12.5323 6.03112 12.5323H8.29821C8.45168 12.5323 8.58029 12.5838 8.68404 12.6868C8.78793 12.7898 8.83987 12.9174 8.83987 13.0698C8.83987 13.2221 8.78793 13.3512 8.68404 13.4568C8.58029 13.5627 8.45168 13.6156 8.29821 13.6156H6.03217ZM7.75591 10.5418C7.60272 10.5418 7.47321 10.4903 7.36737 10.3873C7.2614 10.2842 7.20842 10.1566 7.20842 10.0043C7.20842 9.85199 7.26022 9.72296 7.36383 9.61727C7.46758 9.51143 7.59605 9.45852 7.74925 9.45852H12.2442C12.3974 9.45852 12.527 9.51004 12.6328 9.6131C12.7388 9.71615 12.7917 9.84379 12.7917 9.99602C12.7917 10.1484 12.7399 10.2774 12.6363 10.3831C12.5326 10.4889 12.4041 10.5418 12.2509 10.5418H7.75591ZM11.702 13.6156C11.5485 13.6156 11.4199 13.5641 11.3161 13.461C11.2122 13.358 11.1603 13.2303 11.1603 13.0779C11.1603 12.9257 11.2122 12.7966 11.3161 12.6908C11.4199 12.5851 11.5485 12.5323 11.702 12.5323H13.969C14.6682 12.5323 15.2648 12.2852 15.7588 11.791C16.253 11.2968 16.5001 10.6999 16.5001 10.0002C16.5001 9.30046 16.253 8.70351 15.7588 8.20935C15.2648 7.71518 14.6682 7.4681 13.969 7.4681H11.702C11.5485 7.4681 11.4199 7.41657 11.3161 7.31351C11.2122 7.2106 11.1603 7.08296 11.1603 6.9306C11.1603 6.77824 11.2122 6.64921 11.3161 6.54352C11.4199 6.43768 11.5485 6.38477 11.702 6.38477H13.968C14.9683 6.38477 15.8209 6.73768 16.5259 7.44352C17.2309 8.14935 17.5834 9.00296 17.5834 10.0043C17.5834 11.0059 17.2309 11.8581 16.5259 12.561C15.8209 13.2641 14.9683 13.6156 13.968 13.6156H11.702Z" fill="#A0A0A0" style="fill:#A0A0A0;fill:color(display-p3 0.6275 0.6275 0.6275);fill-opacity:1;"/>
</g>
</svg>
