<svg width="20" height="20" viewBox="0 0 20 20" fill="none" xmlns="http://www.w3.org/2000/svg">
<mask id="mask0_307_3839" style="mask-type:alpha" maskUnits="userSpaceOnUse" x="0" y="0" width="20" height="20">
<rect width="20" height="20" fill="#D9D9D9"/>
</mask>
<g mask="url(#mask0_307_3839)">
<path d="M8.125 17.5C7.41667 17.5 6.80556 17.2535 6.29167 16.7604C5.77778 16.2674 5.48611 15.6736 5.41667 14.9792C4.58333 14.8681 3.88889 14.5 3.33333 13.875C2.77778 13.25 2.5 12.5139 2.5 11.6667C2.5 11.375 2.53819 11.0868 2.61458 10.8021C2.69097 10.5174 2.80556 10.25 2.95833 10C2.80556 9.75 2.69097 9.48611 2.61458 9.20833C2.53819 8.93056 2.5 8.63889 2.5 8.33333C2.5 7.48611 2.77778 6.75347 3.33333 6.13542C3.88889 5.51736 4.57639 5.15278 5.39583 5.04167C5.4375 4.33333 5.72222 3.73264 6.25 3.23958C6.77778 2.74653 7.40278 2.5 8.125 2.5C8.48611 2.5 8.82292 2.56944 9.13542 2.70833C9.44792 2.84722 9.73611 3.03472 10 3.27083C10.25 3.03472 10.5347 2.84722 10.8542 2.70833C11.1736 2.56944 11.5139 2.5 11.875 2.5C12.5972 2.5 13.2188 2.74306 13.7396 3.22917C14.2604 3.71528 14.5417 4.3125 14.5833 5.02083C15.4028 5.13194 16.0938 5.5 16.6563 6.125C17.2188 6.75 17.5 7.48611 17.5 8.33333C17.5 8.63889 17.4618 8.93056 17.3854 9.20833C17.309 9.48611 17.1944 9.75 17.0417 10C17.1944 10.25 17.309 10.5174 17.3854 10.8021C17.4618 11.0868 17.5 11.375 17.5 11.6667C17.5 12.5278 17.2188 13.2674 16.6563 13.8854C16.0938 14.5035 15.3958 14.8681 14.5625 14.9792C14.4931 15.6736 14.2049 16.2674 13.6979 16.7604C13.191 17.2535 12.5833 17.5 11.875 17.5C11.5278 17.5 11.191 17.434 10.8646 17.3021C10.5382 17.1701 10.25 16.9861 10 16.75C9.73611 16.9861 9.44444 17.1701 9.125 17.3021C8.80556 17.434 8.47222 17.5 8.125 17.5ZM10.8333 5.20833V14.7917C10.8333 15.0833 10.934 15.3299 11.1354 15.5312C11.3368 15.7326 11.5833 15.8333 11.875 15.8333C12.1528 15.8333 12.3924 15.7222 12.5938 15.5C12.7951 15.2778 12.9028 15.0278 12.9167 14.75C12.625 14.6389 12.3576 14.4896 12.1146 14.3021C11.8715 14.1146 11.6528 13.8889 11.4583 13.625C11.3194 13.4306 11.2674 13.2222 11.3021 13C11.3368 12.7778 11.4514 12.5972 11.6458 12.4583C11.8403 12.3194 12.0486 12.2674 12.2708 12.3021C12.4931 12.3368 12.6736 12.4514 12.8125 12.6458C12.9653 12.8681 13.1597 13.0382 13.3958 13.1562C13.6319 13.2743 13.8889 13.3333 14.1667 13.3333C14.625 13.3333 15.0174 13.1701 15.3438 12.8438C15.6701 12.5174 15.8333 12.125 15.8333 11.6667C15.8333 11.5972 15.8299 11.5278 15.8229 11.4583C15.816 11.3889 15.7986 11.3194 15.7708 11.25C15.5347 11.3889 15.2812 11.4931 15.0104 11.5625C14.7396 11.6319 14.4583 11.6667 14.1667 11.6667C13.9306 11.6667 13.7326 11.5868 13.5729 11.4271C13.4132 11.2674 13.3333 11.0694 13.3333 10.8333C13.3333 10.5972 13.4132 10.3993 13.5729 10.2396C13.7326 10.0799 13.9306 10 14.1667 10C14.625 10 15.0174 9.83681 15.3438 9.51042C15.6701 9.18403 15.8333 8.79167 15.8333 8.33333C15.8333 7.875 15.6701 7.48611 15.3438 7.16667C15.0174 6.84722 14.625 6.68056 14.1667 6.66667C14.0139 6.91667 13.816 7.13542 13.5729 7.32292C13.3299 7.51042 13.0625 7.65972 12.7708 7.77083C12.5486 7.85417 12.3333 7.84722 12.125 7.75C11.9167 7.65278 11.7778 7.49306 11.7083 7.27083C11.6389 7.04861 11.6493 6.83333 11.7396 6.625C11.8299 6.41667 11.9861 6.27778 12.2083 6.20833C12.4167 6.13889 12.5868 6.01389 12.7188 5.83333C12.8507 5.65278 12.9167 5.44444 12.9167 5.20833C12.9167 4.91667 12.816 4.67014 12.6146 4.46875C12.4132 4.26736 12.1667 4.16667 11.875 4.16667C11.5833 4.16667 11.3368 4.26736 11.1354 4.46875C10.934 4.67014 10.8333 4.91667 10.8333 5.20833ZM9.16667 14.7917V5.20833C9.16667 4.91667 9.06597 4.67014 8.86458 4.46875C8.66319 4.26736 8.41667 4.16667 8.125 4.16667C7.83333 4.16667 7.58681 4.26736 7.38542 4.46875C7.18403 4.67014 7.08333 4.91667 7.08333 5.20833C7.08333 5.43056 7.14583 5.63542 7.27083 5.82292C7.39583 6.01042 7.5625 6.13889 7.77083 6.20833C7.99306 6.27778 8.15278 6.41667 8.25 6.625C8.34722 6.83333 8.36111 7.04861 8.29167 7.27083C8.20833 7.49306 8.0625 7.65278 7.85417 7.75C7.64583 7.84722 7.43056 7.85417 7.20833 7.77083C6.91667 7.65972 6.64931 7.51042 6.40625 7.32292C6.16319 7.13542 5.96528 6.91667 5.8125 6.66667C5.36806 6.68056 4.98264 6.85069 4.65625 7.17708C4.32986 7.50347 4.16667 7.88889 4.16667 8.33333C4.16667 8.79167 4.32986 9.18403 4.65625 9.51042C4.98264 9.83681 5.375 10 5.83333 10C6.06944 10 6.26736 10.0799 6.42708 10.2396C6.58681 10.3993 6.66667 10.5972 6.66667 10.8333C6.66667 11.0694 6.58681 11.2674 6.42708 11.4271C6.26736 11.5868 6.06944 11.6667 5.83333 11.6667C5.54167 11.6667 5.26042 11.6319 4.98958 11.5625C4.71875 11.4931 4.46528 11.3889 4.22917 11.25C4.20139 11.3194 4.18403 11.3889 4.17708 11.4583C4.17014 11.5278 4.16667 11.5972 4.16667 11.6667C4.16667 12.125 4.32986 12.5174 4.65625 12.8438C4.98264 13.1701 5.375 13.3333 5.83333 13.3333C6.11111 13.3333 6.36806 13.2743 6.60417 13.1562C6.84028 13.0382 7.03472 12.8681 7.1875 12.6458C7.32639 12.4514 7.50694 12.3368 7.72917 12.3021C7.95139 12.2674 8.15972 12.3194 8.35417 12.4583C8.54861 12.5972 8.66319 12.7778 8.69792 13C8.73264 13.2222 8.68056 13.4306 8.54167 13.625C8.34722 13.8889 8.125 14.1181 7.875 14.3125C7.625 14.5069 7.35417 14.6597 7.0625 14.7708C7.07639 15.0486 7.1875 15.2951 7.39583 15.5104C7.60417 15.7257 7.84722 15.8333 8.125 15.8333C8.41667 15.8333 8.66319 15.7326 8.86458 15.5312C9.06597 15.3299 9.16667 15.0833 9.16667 14.7917Z" fill="#C8C8C8"/>
</g>
</svg>
