<svg width="20" height="20" viewBox="0 0 20 20" fill="none" xmlns="http://www.w3.org/2000/svg">
<mask id="mask0_307_3855" style="mask-type:alpha" maskUnits="userSpaceOnUse" x="0" y="0" width="20" height="20">
<rect width="20" height="20" fill="#D9D9D9"/>
</mask>
<g mask="url(#mask0_307_3855)">
<path d="M5.83329 14.1667C6.0694 14.1667 6.26732 14.0868 6.42704 13.9271C6.58676 13.7674 6.66663 13.5694 6.66663 13.3333C6.66663 13.0972 6.58676 12.8993 6.42704 12.7396C6.26732 12.5799 6.0694 12.5 5.83329 12.5C5.59718 12.5 5.39926 12.5799 5.23954 12.7396C5.07982 12.8993 4.99996 13.0972 4.99996 13.3333C4.99996 13.5694 5.07982 13.7674 5.23954 13.9271C5.39926 14.0868 5.59718 14.1667 5.83329 14.1667ZM4.99996 10.8333H6.66663V5.83333H4.99996V10.8333ZM9.16663 14.1667H15V12.5H9.16663V14.1667ZM9.16663 10.8333H15V9.16667H9.16663V10.8333ZM9.16663 7.5H15V5.83333H9.16663V7.5ZM3.33329 17.5C2.87496 17.5 2.4826 17.3368 2.15621 17.0104C1.82982 16.684 1.66663 16.2917 1.66663 15.8333V4.16667C1.66663 3.70833 1.82982 3.31597 2.15621 2.98958C2.4826 2.66319 2.87496 2.5 3.33329 2.5H16.6666C17.125 2.5 17.5173 2.66319 17.8437 2.98958C18.1701 3.31597 18.3333 3.70833 18.3333 4.16667V15.8333C18.3333 16.2917 18.1701 16.684 17.8437 17.0104C17.5173 17.3368 17.125 17.5 16.6666 17.5H3.33329ZM3.33329 15.8333H16.6666V4.16667H3.33329V15.8333Z" fill="#C8C8C8"/>
</g>
</svg>
