<svg width="20" height="20" viewBox="0 0 20 20" fill="none" xmlns="http://www.w3.org/2000/svg">
<mask id="mask0_18_5390" style="mask-type:alpha" maskUnits="userSpaceOnUse" x="0" y="0" width="20" height="20">
<rect width="20" height="20" fill="#D9D9D9"/>
</mask>
<g mask="url(#mask0_18_5390)">
<path d="M5.99563 14C6.20688 14 6.38542 13.9285 6.53125 13.7856C6.67708 13.6427 6.75 13.4656 6.75 13.2544C6.75 13.0431 6.67854 12.8646 6.53562 12.7188C6.39271 12.5729 6.21562 12.5 6.00437 12.5C5.79312 12.5 5.61458 12.5715 5.46875 12.7144C5.32292 12.8573 5.25 13.0344 5.25 13.2456C5.25 13.4569 5.32146 13.6354 5.46438 13.7812C5.60729 13.9271 5.78438 14 5.99563 14ZM6.00437 6C5.79312 6 5.61458 6.07187 5.46875 6.21562C5.32292 6.35937 5.25 6.5375 5.25 6.75V10.25C5.25 10.4625 5.32146 10.6406 5.46438 10.7844C5.60729 10.9281 5.78438 11 5.99563 11C6.20688 11 6.38542 10.9281 6.53125 10.7844C6.67708 10.6406 6.75 10.4625 6.75 10.25V6.75C6.75 6.5375 6.67854 6.35937 6.53562 6.21562C6.39271 6.07187 6.21562 6 6.00437 6ZM14.25 14C14.4625 14 14.6406 13.9285 14.7844 13.7856C14.9281 13.6427 15 13.4656 15 13.2544C15 13.0431 14.9281 12.8646 14.7844 12.7188C14.6406 12.5729 14.4625 12.5 14.25 12.5H10.25C10.0375 12.5 9.85938 12.5715 9.71563 12.7144C9.57188 12.8573 9.5 13.0344 9.5 13.2456C9.5 13.4569 9.57188 13.6354 9.71563 13.7812C9.85938 13.9271 10.0375 14 10.25 14H14.25ZM14.25 10.75C14.4625 10.75 14.6406 10.6785 14.7844 10.5356C14.9281 10.3927 15 10.2156 15 10.0044C15 9.79313 14.9281 9.61458 14.7844 9.46875C14.6406 9.32292 14.4625 9.25 14.25 9.25H10.25C10.0375 9.25 9.85938 9.32146 9.71563 9.46438C9.57188 9.60729 9.5 9.78438 9.5 9.99563C9.5 10.2069 9.57188 10.3854 9.71563 10.5312C9.85938 10.6771 10.0375 10.75 10.25 10.75H14.25ZM14.25 7.5C14.4625 7.5 14.6406 7.42854 14.7844 7.28563C14.9281 7.14271 15 6.96563 15 6.75438C15 6.54313 14.9281 6.36458 14.7844 6.21875C14.6406 6.07292 14.4625 6 14.25 6H10.25C10.0375 6 9.85938 6.07146 9.71563 6.21437C9.57188 6.35729 9.5 6.53437 9.5 6.74562C9.5 6.95687 9.57188 7.13542 9.71563 7.28125C9.85938 7.42708 10.0375 7.5 10.25 7.5H14.25ZM3.5 17C3.0875 17 2.73438 16.8531 2.44063 16.5594C2.14688 16.2656 2 15.9125 2 15.5V4.5C2 4.0875 2.14688 3.73438 2.44063 3.44063C2.73438 3.14688 3.0875 3 3.5 3H16.5C16.9125 3 17.2656 3.14688 17.5594 3.44063C17.8531 3.73438 18 4.0875 18 4.5V15.5C18 15.9125 17.8531 16.2656 17.5594 16.5594C17.2656 16.8531 16.9125 17 16.5 17H3.5ZM3.5 15.5H16.5V4.5H3.5V15.5Z" fill="#C8C8C8"/>
</g>
</svg>
