<svg width="48" height="48" viewBox="0 0 48 48" fill="none" xmlns="http://www.w3.org/2000/svg">
<rect width="48" height="48" fill="#C8C8C8"/>
<mask id="mask0_86_2340" style="mask-type:alpha" maskUnits="userSpaceOnUse" x="12" y="12" width="24" height="24">
<rect x="12" y="12" width="24" height="24" fill="#D9D9D9"/>
</mask>
<g mask="url(#mask0_86_2340)">
<path d="M23.25 24.75H18.25C18.0375 24.75 17.8594 24.6781 17.7158 24.5342C17.5719 24.3904 17.5 24.2122 17.5 23.9997C17.5 23.7871 17.5719 23.609 17.7158 23.4655C17.8594 23.3218 18.0375 23.25 18.25 23.25H23.25V18.25C23.25 18.0375 23.3219 17.8594 23.4658 17.7158C23.6096 17.5719 23.7878 17.5 24.0003 17.5C24.2129 17.5 24.391 17.5719 24.5345 17.7158C24.6782 17.8594 24.75 18.0375 24.75 18.25V23.25H29.75C29.9625 23.25 30.1406 23.3219 30.2843 23.4658C30.4281 23.6096 30.5 23.7878 30.5 24.0003C30.5 24.2129 30.4281 24.391 30.2843 24.5345C30.1406 24.6782 29.9625 24.75 29.75 24.75H24.75V29.75C24.75 29.9625 24.6781 30.1406 24.5342 30.2843C24.3904 30.4281 24.2122 30.5 23.9997 30.5C23.7871 30.5 23.609 30.4281 23.4655 30.2843C23.3218 30.1406 23.25 29.9625 23.25 29.75V24.75Z" fill="white"/>
</g>
</svg>
