<svg width="20" height="20" viewBox="0 0 20 20" fill="none" xmlns="http://www.w3.org/2000/svg">
<mask id="mask0_307_3844" style="mask-type:alpha" maskUnits="userSpaceOnUse" x="0" y="0" width="20" height="20">
<rect width="20" height="20" fill="#D9D9D9"/>
</mask>
<g mask="url(#mask0_307_3844)">
<path d="M8.83333 13.3757L14.7083 7.50065L13.5417 6.33398L8.83333 11.0423L6.45833 8.66732L5.29167 9.83398L8.83333 13.3757ZM4.16667 17.5007C3.70833 17.5007 3.31597 17.3375 2.98958 17.0111C2.66319 16.6847 2.5 16.2923 2.5 15.834V4.16732C2.5 3.70898 2.66319 3.31662 2.98958 2.99023C3.31597 2.66385 3.70833 2.50065 4.16667 2.50065H7.66667C7.84722 2.00065 8.14931 1.59787 8.57292 1.29232C8.99653 0.986762 9.47222 0.833984 10 0.833984C10.5278 0.833984 11.0035 0.986762 11.4271 1.29232C11.8507 1.59787 12.1528 2.00065 12.3333 2.50065H15.8333C16.2917 2.50065 16.684 2.66385 17.0104 2.99023C17.3368 3.31662 17.5 3.70898 17.5 4.16732V15.834C17.5 16.2923 17.3368 16.6847 17.0104 17.0111C16.684 17.3375 16.2917 17.5007 15.8333 17.5007H4.16667ZM4.16667 15.834H15.8333V4.16732H4.16667V15.834ZM10 3.54232C10.1806 3.54232 10.3299 3.48329 10.4479 3.36523C10.566 3.24718 10.625 3.09787 10.625 2.91732C10.625 2.73676 10.566 2.58746 10.4479 2.4694C10.3299 2.35135 10.1806 2.29232 10 2.29232C9.81944 2.29232 9.67014 2.35135 9.55208 2.4694C9.43403 2.58746 9.375 2.73676 9.375 2.91732C9.375 3.09787 9.43403 3.24718 9.55208 3.36523C9.67014 3.48329 9.81944 3.54232 10 3.54232Z" fill="#C8C8C8"/>
</g>
</svg>
