<svg width="28" height="28" viewBox="0 0 28 28" fill="none" xmlns="http://www.w3.org/2000/svg">
<mask id="mask0_64_6384" style="mask-type:alpha" maskUnits="userSpaceOnUse" x="0" y="0" width="28" height="28">
<rect width="28" height="28" fill="#D9D9D9"/>
</mask>
<g mask="url(#mask0_64_6384)">
<path d="M14 19.8333C15.6139 19.8333 16.9896 19.2645 18.1271 18.127C19.2646 16.9895 19.8333 15.6138 19.8333 13.9999C19.8333 12.386 19.2646 11.0103 18.1271 9.87284C16.9896 8.73534 15.6139 8.16659 14 8.16659C12.3861 8.16659 11.0104 8.73534 9.8729 9.87284C8.7354 11.0103 8.16665 12.386 8.16665 13.9999C8.16665 15.6138 8.7354 16.9895 9.8729 18.127C11.0104 19.2645 12.3861 19.8333 14 19.8333ZM14 25.6666C12.3861 25.6666 10.8694 25.3603 9.44998 24.7478C8.03054 24.1353 6.79581 23.3041 5.74581 22.2541C4.69581 21.2041 3.86456 19.9694 3.25206 18.5499C2.63956 17.1305 2.33331 15.6138 2.33331 13.9999C2.33331 12.386 2.63956 10.8694 3.25206 9.44992C3.86456 8.03047 4.69581 6.79575 5.74581 5.74575C6.79581 4.69575 8.03054 3.8645 9.44998 3.252C10.8694 2.6395 12.3861 2.33325 14 2.33325C15.6139 2.33325 17.1305 2.6395 18.55 3.252C19.9694 3.8645 21.2041 4.69575 22.2541 5.74575C23.3041 6.79575 24.1354 8.03047 24.7479 9.44992C25.3604 10.8694 25.6666 12.386 25.6666 13.9999C25.6666 15.6138 25.3604 17.1305 24.7479 18.5499C24.1354 19.9694 23.3041 21.2041 22.2541 22.2541C21.2041 23.3041 19.9694 24.1353 18.55 24.7478C17.1305 25.3603 15.6139 25.6666 14 25.6666ZM14 23.3333C16.6055 23.3333 18.8125 22.4291 20.6208 20.6208C22.4291 18.8124 23.3333 16.6055 23.3333 13.9999C23.3333 11.3944 22.4291 9.18742 20.6208 7.37909C18.8125 5.57075 16.6055 4.66659 14 4.66659C11.3944 4.66659 9.18748 5.57075 7.37915 7.37909C5.57081 9.18742 4.66665 11.3944 4.66665 13.9999C4.66665 16.6055 5.57081 18.8124 7.37915 20.6208C9.18748 22.4291 11.3944 23.3333 14 23.3333Z" fill="#C8C8C8"/>
</g>
</svg>
