<svg width="28" height="28" viewBox="0 0 28 28" fill="none" xmlns="http://www.w3.org/2000/svg">
<mask id="mask0_64_6387" style="mask-type:alpha" maskUnits="userSpaceOnUse" x="0" y="0" width="28" height="28">
<rect width="28" height="28" fill="#D9D9D9"/>
</mask>
<g mask="url(#mask0_64_6387)">
<path d="M13.6667 25.3333C12.0528 25.3333 10.5361 25.0271 9.11667 24.4146C7.69722 23.8021 6.4625 22.9708 5.4125 21.9208C4.3625 20.8708 3.53125 19.6361 2.91875 18.2167C2.30625 16.7972 2 15.2806 2 13.6667C2 12.0528 2.30625 10.5361 2.91875 9.11667C3.53125 7.69722 4.3625 6.4625 5.4125 5.4125C6.4625 4.3625 7.69722 3.53125 9.11667 2.91875C10.5361 2.30625 12.0528 2 13.6667 2C15.2806 2 16.7972 2.30625 18.2167 2.91875C19.6361 3.53125 20.8708 4.3625 21.9208 5.4125C22.9708 6.4625 23.8021 7.69722 24.4146 9.11667C25.0271 10.5361 25.3333 12.0528 25.3333 13.6667C25.3333 15.2806 25.0271 16.7972 24.4146 18.2167C23.8021 19.6361 22.9708 20.8708 21.9208 21.9208C20.8708 22.9708 19.6361 23.8021 18.2167 24.4146C16.7972 25.0271 15.2806 25.3333 13.6667 25.3333ZM13.6667 23C16.2722 23 18.4792 22.0958 20.2875 20.2875C22.0958 18.4792 23 16.2722 23 13.6667C23 11.0611 22.0958 8.85417 20.2875 7.04583C18.4792 5.2375 16.2722 4.33333 13.6667 4.33333C11.0611 4.33333 8.85417 5.2375 7.04583 7.04583C5.2375 8.85417 4.33333 11.0611 4.33333 13.6667C4.33333 16.2722 5.2375 18.4792 7.04583 20.2875C8.85417 22.0958 11.0611 23 13.6667 23Z" fill="#C8C8C8"/>
</g>
</svg>
