<svg width="20" height="20" viewBox="0 0 20 20" fill="none" xmlns="http://www.w3.org/2000/svg">
<mask id="mask0_467_11" style="mask-type:alpha" maskUnits="userSpaceOnUse" x="0" y="0" width="20" height="20">
<rect width="20" height="20" fill="#D9D9D9" style="fill:#D9D9D9;fill:color(display-p3 0.8510 0.8510 0.8510);fill-opacity:1;"/>
</mask>
<g mask="url(#mask0_467_11)">
<path d="M16.2852 17.1474L11.0513 11.9133C10.6346 12.2573 10.1554 12.5265 9.61375 12.721C9.07209 12.9154 8.51174 13.0126 7.93271 13.0126C6.50841 13.0126 5.30299 12.5195 4.31646 11.5333C3.32993 10.547 2.83667 9.34188 2.83667 7.91785C2.83667 6.49396 3.32979 5.2884 4.31604 4.30118C5.30229 3.3141 6.50743 2.82056 7.93146 2.82056C9.35535 2.82056 10.5609 3.31382 11.5481 4.30035C12.5352 5.28688 13.0288 6.49229 13.0288 7.9166C13.0288 8.51174 12.9289 9.08014 12.7292 9.62181C12.5293 10.1635 12.2627 10.6346 11.9294 11.0351L17.1633 16.2691L16.2852 17.1474ZM7.93271 11.7628C9.00646 11.7628 9.91591 11.3902 10.661 10.6449C11.4063 9.89979 11.779 8.99035 11.779 7.9166C11.779 6.84285 11.4063 5.9334 10.661 5.18826C9.91591 4.44299 9.00646 4.07035 7.93271 4.07035C6.85896 4.07035 5.94952 4.44299 5.20438 5.18826C4.4591 5.9334 4.08646 6.84285 4.08646 7.9166C4.08646 8.99035 4.4591 9.89979 5.20438 10.6449C5.94952 11.3902 6.85896 11.7628 7.93271 11.7628Z" fill="white" style="fill:white;fill-opacity:1;"/>
</g>
</svg>
