<svg width="28" height="28" viewBox="0 0 28 28" fill="none" xmlns="http://www.w3.org/2000/svg">
<mask id="mask0_64_6376" style="mask-type:alpha" maskUnits="userSpaceOnUse" x="0" y="0" width="28" height="28">
<rect width="28" height="28" fill="#D9D9D9"/>
</mask>
<g mask="url(#mask0_64_6376)">
<path d="M22.7993 24.0064L15.4717 16.6785C14.8884 17.1602 14.2176 17.5371 13.4592 17.8093C12.7009 18.0815 11.9164 18.2176 11.1058 18.2176C9.11174 18.2176 7.42416 17.5273 6.04302 16.1465C4.66188 14.7658 3.97131 13.0786 3.97131 11.0849C3.97131 9.09149 4.66169 7.40372 6.04244 6.02161C7.42319 4.63969 9.11038 3.94873 11.104 3.94873C13.0975 3.94873 14.7852 4.6393 16.1674 6.02044C17.5493 7.40158 18.2402 9.08916 18.2402 11.0832C18.2402 11.9164 18.1004 12.7121 17.8208 13.4705C17.541 14.2288 17.1678 14.8884 16.7011 15.4491L24.0286 22.7767L22.7993 24.0064ZM11.1058 16.4679C12.609 16.4679 13.8822 15.9462 14.9254 14.9029C15.9688 13.8597 16.4905 12.5864 16.4905 11.0832C16.4905 9.57994 15.9688 8.30672 14.9254 7.26352C13.8822 6.22013 12.609 5.69844 11.1058 5.69844C9.60252 5.69844 8.3293 6.22013 7.2861 7.26352C6.24272 8.30672 5.72102 9.57994 5.72102 11.0832C5.72102 12.5864 6.24272 13.8597 7.2861 14.9029C8.3293 15.9462 9.60252 16.4679 11.1058 16.4679Z" fill="#C8C8C8"/>
</g>
</svg>
