<svg width="40" height="40" viewBox="0 0 40 40" fill="none" xmlns="http://www.w3.org/2000/svg">
<mask id="mask0_454_7" style="mask-type:alpha" maskUnits="userSpaceOnUse" x="0" y="0" width="40" height="40">
<rect width="40" height="40" fill="#D9D9D9" style="fill:#D9D9D9;fill:color(display-p3 0.8510 0.8510 0.8510);fill-opacity:1;"/>
</mask>
<g mask="url(#mask0_454_7)">
<path d="M20.0001 26.8366L13.6926 30.6528C13.5421 30.7175 13.4009 30.746 13.2693 30.7382C13.1376 30.7305 13.0115 30.687 12.8909 30.6078C12.7707 30.5287 12.68 30.4199 12.6189 30.2816C12.5575 30.143 12.5557 29.9921 12.6134 29.8291L14.2759 22.6824L8.73636 17.8545C8.60941 17.7556 8.52413 17.6348 8.48052 17.492C8.43663 17.3492 8.44455 17.2062 8.50427 17.0628C8.54983 16.9339 8.62469 16.8271 8.72886 16.7424C8.83275 16.6577 8.96733 16.6074 9.13261 16.5916L16.4551 15.9453L19.3176 9.16783C19.3879 9.02533 19.4816 8.91658 19.5989 8.84158C19.7161 8.76685 19.8498 8.72949 20.0001 8.72949C20.1504 8.72949 20.2841 8.76685 20.4014 8.84158C20.5186 8.91658 20.6123 9.02533 20.6826 9.16783L23.5451 15.9453L30.8676 16.5916C31.0329 16.6074 31.1675 16.6577 31.2714 16.7424C31.3755 16.8271 31.4575 16.9339 31.5172 17.0628C31.5627 17.2062 31.5636 17.3492 31.5197 17.492C31.4761 17.6348 31.3908 17.7556 31.2639 17.8545L25.7243 22.6824L27.4084 29.8291C27.4518 29.9921 27.4427 30.143 27.3814 30.2816C27.3202 30.4199 27.2296 30.5287 27.1093 30.6078C26.9887 30.687 26.8626 30.7305 26.7309 30.7382C26.5993 30.746 26.4583 30.7175 26.308 30.6528L20.0001 26.8366Z" fill="#D68C47" style="fill:#D68C47;fill:color(display-p3 0.8392 0.5490 0.2784);fill-opacity:1;"/>
</g>
</svg>
