<svg width="40" height="40" viewBox="0 0 40 40" fill="none" xmlns="http://www.w3.org/2000/svg">
<mask id="mask0_450_3" style="mask-type:alpha" maskUnits="userSpaceOnUse" x="0" y="0" width="40" height="40">
<rect width="40" height="40" fill="#D9D9D9" style="fill:#D9D9D9;fill:color(display-p3 0.8510 0.8510 0.8510);fill-opacity:1;"/>
</mask>
<g mask="url(#mask0_450_3)">
<path d="M14.359 28.5887L19.9999 25.1782L25.6411 28.6303L24.1653 22.1774L29.1344 17.8737L22.5853 17.2916L19.9999 11.2274L17.4144 17.2499L10.8653 17.832L15.8344 22.1707L14.359 28.5887ZM19.9999 26.8366L13.6924 30.6528C13.5418 30.7175 13.4007 30.746 13.269 30.7382C13.1374 30.7305 13.0113 30.687 12.8907 30.6078C12.7704 30.5287 12.6797 30.4199 12.6186 30.2816C12.5572 30.143 12.5554 29.9921 12.6132 29.8291L14.2757 22.6824L8.73611 17.8545C8.60917 17.7556 8.52389 17.6348 8.48028 17.492C8.43639 17.3492 8.44431 17.2062 8.50403 17.0628C8.54958 16.9339 8.62445 16.8271 8.72861 16.7424C8.8325 16.6577 8.96708 16.6074 9.13236 16.5916L16.4549 15.9453L19.3174 9.16783C19.3876 9.02533 19.4814 8.91658 19.5986 8.84158C19.7158 8.76685 19.8496 8.72949 19.9999 8.72949C20.1501 8.72949 20.2839 8.76685 20.4011 8.84158C20.5183 8.91658 20.6121 9.02533 20.6824 9.16783L23.5449 15.9453L30.8674 16.5916C31.0326 16.6074 31.1672 16.6577 31.2711 16.7424C31.3753 16.8271 31.4572 16.9339 31.5169 17.0628C31.5625 17.2062 31.5633 17.3492 31.5194 17.492C31.4758 17.6348 31.3906 17.7556 31.2636 17.8545L25.724 22.6824L27.4082 29.8291C27.4515 29.9921 27.4425 30.143 27.3811 30.2816C27.32 30.4199 27.2293 30.5287 27.109 30.6078C26.9885 30.687 26.8624 30.7305 26.7307 30.7382C26.599 30.746 26.4581 30.7175 26.3078 30.6528L19.9999 26.8366Z" fill="#737373" style="fill:#737373;fill:color(display-p3 0.4510 0.4510 0.4510);fill-opacity:1;"/>
</g>
</svg>
