<svg width="28" height="28" viewBox="0 0 28 28" fill="none" xmlns="http://www.w3.org/2000/svg">
<mask id="mask0_70_62" style="mask-type:alpha" maskUnits="userSpaceOnUse" x="0" y="0" width="28" height="28">
<rect width="28" height="28" fill="#D9D9D9"/>
</mask>
<g mask="url(#mask0_70_62)">
<path d="M14.0001 18.7856L9.58485 21.4569C9.47946 21.5022 9.38068 21.5222 9.28852 21.5167C9.19635 21.5113 9.10807 21.4808 9.02368 21.4254C8.93949 21.37 8.876 21.2939 8.83322 21.1971C8.79025 21.1 8.78899 20.9944 8.82943 20.8803L9.99318 15.8776L6.11547 12.4981C6.02661 12.4289 5.96692 12.3443 5.93639 12.2443C5.90567 12.1444 5.91121 12.0443 5.95302 11.9439C5.9849 11.8537 6.03731 11.7789 6.11022 11.7196C6.18295 11.6603 6.27715 11.6251 6.39285 11.6141L11.5186 11.1617L13.5223 6.41743C13.5715 6.31768 13.6372 6.24155 13.7192 6.18905C13.8013 6.13675 13.8949 6.1106 14.0001 6.1106C14.1053 6.1106 14.1989 6.13675 14.281 6.18905C14.363 6.24155 14.4287 6.31768 14.4778 6.41743L16.4816 11.1617L21.6073 11.6141C21.723 11.6251 21.8173 11.6603 21.89 11.7196C21.9629 11.7789 22.0203 11.8537 22.0621 11.9439C22.0939 12.0443 22.0945 12.1444 22.0638 12.2443C22.0333 12.3443 21.9736 12.4289 21.8847 12.4981L18.007 15.8776L19.1859 20.8803C19.2163 20.9944 19.2099 21.1 19.167 21.1971C19.1242 21.2939 19.0607 21.37 18.9765 21.4254C18.8921 21.4808 18.8038 21.5113 18.7117 21.5167C18.6195 21.5222 18.5208 21.5022 18.4156 21.4569L14.0001 18.7856Z" fill="#C8C8C8"/>
</g>
</svg>
