<svg width="28" height="28" viewBox="0 0 28 28" fill="none" xmlns="http://www.w3.org/2000/svg">
<mask id="mask0_70_59" style="mask-type:alpha" maskUnits="userSpaceOnUse" x="0" y="0" width="28" height="28">
<rect width="28" height="28" fill="#D9D9D9"/>
</mask>
<g mask="url(#mask0_70_59)">
<path d="M10.0513 20.012L13.9999 17.6247L17.9488 20.0412L16.9157 15.5241L20.3941 12.5115L15.8097 12.1041L13.9999 7.85914L12.1901 12.0749L7.60571 12.4823L11.0841 15.5195L10.0513 20.012ZM13.9999 18.7856L9.58467 21.4569C9.47928 21.5022 9.3805 21.5222 9.28833 21.5167C9.19617 21.5113 9.10789 21.4808 9.0235 21.4254C8.9393 21.37 8.87582 21.2939 8.83304 21.1971C8.79007 21.1 8.7888 20.9944 8.82925 20.8803L9.993 15.8776L6.11529 12.4981C6.02643 12.4289 5.96674 12.3443 5.93621 12.2443C5.90549 12.1444 5.91103 12.0443 5.95283 11.9439C5.98472 11.8537 6.03712 11.7789 6.11004 11.7196C6.18276 11.6603 6.27697 11.6251 6.39267 11.6141L11.5184 11.1617L13.5222 6.41743C13.5714 6.31768 13.637 6.24155 13.719 6.18905C13.8011 6.13675 13.8947 6.1106 13.9999 6.1106C14.1051 6.1106 14.1987 6.13675 14.2808 6.18905C14.3628 6.24155 14.4285 6.31768 14.4777 6.41743L16.4814 11.1617L21.6072 11.6141C21.7229 11.6251 21.8171 11.6603 21.8898 11.7196C21.9627 11.7789 22.0201 11.8537 22.0619 11.9439C22.0938 12.0443 22.0943 12.1444 22.0636 12.2443C22.0331 12.3443 21.9734 12.4289 21.8845 12.4981L18.0068 15.8776L19.1857 20.8803C19.2161 20.9944 19.2098 21.1 19.1668 21.1971C19.124 21.2939 19.0605 21.37 18.9763 21.4254C18.8919 21.4808 18.8037 21.5113 18.7115 21.5167C18.6193 21.5222 18.5207 21.5022 18.4155 21.4569L13.9999 18.7856Z" fill="#C8C8C8"/>
</g>
</svg>
