<svg width="28" height="28" viewBox="0 0 28 28" fill="none" xmlns="http://www.w3.org/2000/svg">
<mask id="mask0_64_6390" style="mask-type:alpha" maskUnits="userSpaceOnUse" x="0" y="0" width="28" height="28">
<rect width="28" height="28" fill="#D9D9D9"/>
</mask>
<g mask="url(#mask0_64_6390)">
<path d="M8.16669 24.5C7.52502 24.5 6.97571 24.2715 6.51877 23.8146C6.06183 23.3576 5.83335 22.8083 5.83335 22.1667V7C5.5028 7 5.22571 6.88819 5.0021 6.66458C4.77849 6.44097 4.66669 6.16389 4.66669 5.83333C4.66669 5.50278 4.77849 5.22569 5.0021 5.00208C5.22571 4.77847 5.5028 4.66667 5.83335 4.66667H10.5C10.5 4.33611 10.6118 4.05903 10.8354 3.83542C11.059 3.61181 11.3361 3.5 11.6667 3.5H16.3334C16.6639 3.5 16.941 3.61181 17.1646 3.83542C17.3882 4.05903 17.5 4.33611 17.5 4.66667H22.1667C22.4972 4.66667 22.7743 4.77847 22.9979 5.00208C23.2215 5.22569 23.3334 5.50278 23.3334 5.83333C23.3334 6.16389 23.2215 6.44097 22.9979 6.66458C22.7743 6.88819 22.4972 7 22.1667 7V22.1667C22.1667 22.8083 21.9382 23.3576 21.4813 23.8146C21.0243 24.2715 20.475 24.5 19.8334 24.5H8.16669ZM19.8334 7H8.16669V22.1667H19.8334V7ZM11.6667 19.8333C11.9972 19.8333 12.2743 19.7215 12.4979 19.4979C12.7215 19.2743 12.8334 18.9972 12.8334 18.6667V10.5C12.8334 10.1694 12.7215 9.89236 12.4979 9.66875C12.2743 9.44514 11.9972 9.33333 11.6667 9.33333C11.3361 9.33333 11.059 9.44514 10.8354 9.66875C10.6118 9.89236 10.5 10.1694 10.5 10.5V18.6667C10.5 18.9972 10.6118 19.2743 10.8354 19.4979C11.059 19.7215 11.3361 19.8333 11.6667 19.8333ZM16.3334 19.8333C16.6639 19.8333 16.941 19.7215 17.1646 19.4979C17.3882 19.2743 17.5 18.9972 17.5 18.6667V10.5C17.5 10.1694 17.3882 9.89236 17.1646 9.66875C16.941 9.44514 16.6639 9.33333 16.3334 9.33333C16.0028 9.33333 15.7257 9.44514 15.5021 9.66875C15.2785 9.89236 15.1667 10.1694 15.1667 10.5V18.6667C15.1667 18.9972 15.2785 19.2743 15.5021 19.4979C15.7257 19.7215 16.0028 19.8333 16.3334 19.8333Z" fill="#1C1B1F"/>
</g>
</svg>
