<svg width="71" height="19" viewBox="0 0 71 19" fill="none" xmlns="http://www.w3.org/2000/svg">
<path d="M0.105469 7.97803L2.41316 7.47803L3.95162 6.47803L5.49008 3.97803L7.79778 5.47803L10.8747 6.97803V9.97803L13.1824 10.978L14.7209 12.978L16.2593 16.978L17.7978 11.978L19.3362 9.97803L21.6439 8.47803L24.7209 9.47803L27.7978 12.478L29.3362 8.47803L31.6439 10.478L34.7209 7.97803L36.2593 9.47803L38.567 10.978L41.6439 11.478L43.0879 13.978L45.5441 10.978L47.0285 8.47803V5.47803L48.567 0.978027L50.8747 2.97803L53.9516 2.47803L56.2593 3.47803L57.7978 0.978027L59.3362 2.97803L61.6439 3.47803L63.9516 0.978027L64.7209 3.47803L68.567 7.97803L70.1055 5.47803" stroke="#FF6363"/>
</svg>
